# xmcd
#
# Track frame offsets:
#	150
#	10360
#	23680
#	50797
#	54612
#	70557
#	88937
#	127380
#	158857
#	208037
#
# Disc length: 3755 seconds
#
# Revision: 0
# Processed by: cddbd v1.4PL0 Copyright (c) Steve Scherf et al.
# Submitted via: dBpowerAMP V4.0
#
DISCID=8f0ea90a
DTITLE=Stephen Hartke - The King of The Sun
DYEAR=1995
DGENRE=Chamber Music
TTITLE0=The King of the Sun -- I. Personages in the night guided by the phosphorescent tracks of snails 
TTITLE1=The King of the Sun -- II. Dutch Interior
TTITLE2=The King of the Sun -- III.  Dancer listening to the organ in a Gothic cathedral
TTITLE3=The King of the Sun -- Interlude
TTITLE4=The King of the Sun -- IV. The flames of the sun make the desert flower hysterical
TTITLE5=The King of the Sun -- V. Personages and birds rejoicing at the arrival of night
TTITLE6=Night Rubrics -- I. Nocturnes
TTITLE7=Night Rubrics -- II. Envoi
TTITLE8=Sonata-Variations -- I. Andante:  Theme, Variations 1-4
TTITLE9=Sonata Variations -- II.  Introduction, Rondo and Finale: Variations 5-15
EXTD=
EXTT0=
EXTT1=
EXTT2=
EXTT3=
EXTT4=
EXTT5=
EXTT6=
EXTT7=
EXTT8=
EXTT9=
PLAYORDER=
